<svg xmlns="http://www.w3.org/2000/svg" width="103.659" height="65.965" viewBox="0 0 103.659 65.965">
  <path id="ic_group_24px" d="M71.677,33.271A14.135,14.135,0,1,0,57.541,19.135,14.076,14.076,0,0,0,71.677,33.271Zm-37.694,0A14.135,14.135,0,1,0,19.847,19.135,14.076,14.076,0,0,0,33.982,33.271Zm0,9.424C23,42.694,1,48.207,1,59.185V70.965H66.965V59.185C66.965,48.207,44.961,42.694,33.982,42.694Zm37.694,0c-1.366,0-2.921.094-4.57.236,5.466,3.958,9.282,9.282,9.282,16.256V70.965h28.271V59.185C104.659,48.207,82.655,42.694,71.677,42.694Z" transform="translate(-1 -5)" fill="#fff"/>
</svg>
