<svg xmlns="http://www.w3.org/2000/svg" width="248" height="247" viewBox="0 0 248 247">
  <g id="Group_19" data-name="Group 19" transform="translate(-823 -1952)">
    <g id="Group_13" data-name="Group 13" transform="translate(822.876 1952)">
      <rect id="Rectangle_86" data-name="Rectangle 86" width="248" height="247" transform="translate(0.124)" fill="#456dc8"/>
      <g id="facebook-logo_1_" data-name="facebook-logo (1)" transform="translate(87.923 60.18)">
        <path id="Path_13" data-name="Path 13" d="M85.493.025,69.687,0C51.93,0,40.454,11.773,40.454,30v13.83H24.562a2.486,2.486,0,0,0-2.485,2.487V66.351a2.485,2.485,0,0,0,2.485,2.485H40.454V119.4a2.484,2.484,0,0,0,2.485,2.485H63.674a2.485,2.485,0,0,0,2.485-2.485V68.837H84.741a2.484,2.484,0,0,0,2.485-2.485l.008-20.038a2.487,2.487,0,0,0-2.487-2.487H66.159V32.1c0-5.635,1.343-8.5,8.683-8.5l10.647,0a2.485,2.485,0,0,0,2.484-2.485V2.511A2.486,2.486,0,0,0,85.493.025Z" transform="translate(-22.077)" fill="#fff"/>
      </g>
    </g>
  </g>
</svg>
