<svg xmlns="http://www.w3.org/2000/svg" width="17.876" height="33.065" viewBox="0 0 17.876 33.065">
  <g id="facebook-logo_1_" data-name="facebook-logo (1)" transform="translate(-87.826)">
    <path id="Path_13" data-name="Path 13" d="M39.28.007,34.993,0c-4.817,0-7.93,3.194-7.93,8.137v3.752H22.751a.674.674,0,0,0-.674.675V18a.674.674,0,0,0,.674.674h4.311V32.391a.674.674,0,0,0,.674.674h5.625a.674.674,0,0,0,.674-.674V18.674h5.041A.674.674,0,0,0,39.751,18l0-5.436a.675.675,0,0,0-.675-.675H34.036V8.709c0-1.529.364-2.3,2.356-2.3H39.28a.674.674,0,0,0,.674-.674V.681A.674.674,0,0,0,39.28.007Z" transform="translate(65.749)" fill="#fff"/>
  </g>
</svg>
