<svg xmlns="http://www.w3.org/2000/svg" width="247" height="247" viewBox="0 0 247 247">
  <g id="Group_18" data-name="Group 18" transform="translate(-1296 -1952)">
    <g id="Group_15" data-name="Group 15" transform="translate(1296 1952)">
      <g id="Group_14" data-name="Group 14">
        <rect id="Rectangle_131" data-name="Rectangle 131" width="247" height="247" fill="#456dc8"/>
      </g>
      <g id="instagram-logo" transform="translate(52.107 54.929)">
        <path id="Path_10" data-name="Path 10" d="M100.679,0H38.373C17.214,0,0,16.5,0,36.779V96.5c0,20.28,17.214,36.779,38.373,36.779h62.306c21.16,0,38.374-16.5,38.374-36.779V36.779C139.054,16.5,121.839,0,100.679,0Zm26.038,96.5c0,13.76-11.68,24.954-26.037,24.954H38.373c-14.356,0-26.035-11.194-26.035-24.954V36.779c0-13.759,11.679-24.954,26.035-24.954h62.306c14.357,0,26.037,11.195,26.037,24.954V96.5Z" fill="#fff"/>
        <path id="Path_11" data-name="Path 11" d="M76.8,40.97c-19.757,0-35.83,15.405-35.83,34.341s16.073,34.34,35.83,34.34,35.831-15.4,35.831-34.34S96.556,40.97,76.8,40.97Zm0,56.856c-12.954,0-23.493-10.1-23.493-22.515S63.844,52.794,76.8,52.794s23.493,10.1,23.493,22.517S89.752,97.826,76.8,97.826Z" transform="translate(-7.272 -8.673)" fill="#fff"/>
        <path id="Path_12" data-name="Path 12" d="M127.968,28.251a9.286,9.286,0,0,0-6.39,2.538,8.407,8.407,0,0,0,0,12.266,9.324,9.324,0,0,0,12.79,0,8.425,8.425,0,0,0,0-12.266A9.291,9.291,0,0,0,127.968,28.251Z" transform="translate(-21.109 -5.98)" fill="#fff"/>
      </g>
    </g>
  </g>
</svg>
