<svg id="Group_16" data-name="Group 16" xmlns="http://www.w3.org/2000/svg" width="37.115" height="36.627" viewBox="0 0 37.115 36.627">
  <g id="instagram-logo" transform="translate(0 0)">
    <path id="Path_10" data-name="Path 10" d="M26.872,0H10.242A10.187,10.187,0,0,0,0,10.108V26.519A10.187,10.187,0,0,0,10.242,36.627h16.63A10.187,10.187,0,0,0,37.115,26.519V10.108A10.187,10.187,0,0,0,26.872,0Zm6.95,26.519a6.912,6.912,0,0,1-6.95,6.858H10.242a6.912,6.912,0,0,1-6.949-6.858V10.108A6.912,6.912,0,0,1,10.242,3.25h16.63a6.912,6.912,0,0,1,6.95,6.858V26.519Z" fill="#fff"/>
    <path id="Path_11" data-name="Path 11" d="M50.265,40.97a9.439,9.439,0,1,0,9.3,9.438A9.379,9.379,0,0,0,50.265,40.97Zm0,15.625a6.189,6.189,0,1,1,6.1-6.188A6.149,6.149,0,0,1,50.265,56.6Z" transform="translate(-31.708 -32.094)" fill="#fff"/>
    <path id="Path_12" data-name="Path 12" d="M121.407,28.251a2.552,2.552,0,0,0-1.756.7,2.311,2.311,0,0,0,0,3.371,2.562,2.562,0,0,0,3.515,0,2.315,2.315,0,0,0,0-3.371A2.553,2.553,0,0,0,121.407,28.251Z" transform="translate(-92.93 -22.131)" fill="#fff"/>
  </g>
</svg>
