<svg xmlns="http://www.w3.org/2000/svg" width="42.077" height="29.986" viewBox="0 0 42.077 29.986">
  <path id="Subtraction_97" data-name="Subtraction 97" d="M22.146,29.986H19.928a129.113,129.113,0,0,1-14.646-.6A5.362,5.362,0,0,1,.735,25.162,46.776,46.776,0,0,1,0,14.992,47.283,47.283,0,0,1,.742,4.825,5.361,5.361,0,0,1,5.287.6,129.5,129.5,0,0,1,20.142,0h1.721A130.509,130.509,0,0,1,36.8.6a5.368,5.368,0,0,1,4.55,4.228A46.385,46.385,0,0,1,42.077,14.9v.092a46.791,46.791,0,0,1-.735,10.17,5.37,5.37,0,0,1-4.55,4.229A129.092,129.092,0,0,1,22.146,29.986ZM15.61,7.444V21.671l3.01-1.6,1.963-1.04,8.4-4.455-6.074-3.24-.141-.075L19.887,9.726Z" fill="#f8f8f8"/>
</svg>
