<svg xmlns="http://www.w3.org/2000/svg" width="247.5" height="247.5" viewBox="0 0 247.5 247.5">
  <g id="Group_20" data-name="Group 20" transform="translate(-351 -1951.5)">
    <g id="youtube" transform="translate(351 1951.5)">
      <path id="Path_58" data-name="Path 58" d="M0,0V247.5H247.5V0ZM206.428,164.254A21.658,21.658,0,0,1,187.9,181.094c-21.238,2.368-42.741,2.384-64.161,2.368-21.411.016-42.914,0-64.159-2.368a21.633,21.633,0,0,1-18.516-16.841c-2.99-12.972-2.99-27.143-2.99-40.5s.035-27.526,3.022-40.5a21.624,21.624,0,0,1,18.508-16.84c21.247-2.374,42.759-2.384,64.17-2.374,21.408-.009,42.914,0,64.159,2.374a21.642,21.642,0,0,1,18.526,16.84c2.989,12.972,2.962,27.137,2.962,40.5S209.414,151.282,206.428,164.254Z" fill="#456dc8" fill-rule="evenodd"/>
      <path id="Path_59" data-name="Path 59" d="M186.855,228.893c18.2-9.44,36.248-18.8,54.471-28.249-18.275-9.536-36.317-18.941-54.471-28.415Z" transform="translate(-85.214 -78.544)" fill="#456dc8" fill-rule="evenodd"/>
    </g>
  </g>
</svg>
